<?xml version="1.0" standalone="no"?>
<!DOCTYPE svg PUBLIC "-//W3C//DTD SVG 1.1//EN" "http://www.w3.org/Graphics/SVG/1.1/DTD/svg11.dtd" >
<svg>
<metadata>
Created by FontForge 20090622 at Wed Dec  9 23:46:33 2015
 By deploy user
Copyright (c) 2012 Admix Designs. All rights reserved.
</metadata>
<defs>
<font id="MavenProLight300-Regular" horiz-adv-x="536" >
  <font-face 
    font-family="Maven Pro Light 300"
    font-weight="400"
    font-stretch="normal"
    units-per-em="1000"
    panose-1="0 0 0 0 0 0 0 0 0 0"
    ascent="800"
    descent="-200"
    x-height="485"
    cap-height="643"
    bbox="-73 -200 1016 874"
    underline-thickness="50"
    underline-position="-50"
    unicode-range="U+0020-U+2122"
  />
<missing-glyph horiz-adv-x="418" 
 />
    <glyph glyph-name=".notdef" horiz-adv-x="418" 
 />
    <glyph glyph-name=".null" horiz-adv-x="0" 
 />
    <glyph glyph-name="nonmarkingreturn" horiz-adv-x="333" 
 />
    <glyph glyph-name="space" unicode=" " horiz-adv-x="311" 
 />
    <glyph glyph-name="exclam" unicode="!" horiz-adv-x="309" 
d="M125 0v79h55v-79h-55zM128 643h49l-5 -478h-40z" />
    <glyph glyph-name="quotedbl" unicode="&#x22;" horiz-adv-x="343" 
d="M89 451q-8 134 -13 201h58l-12 -201h-33zM219 451l-12 201h58q-5 -67 -13 -201h-33z" />
    <glyph glyph-name="numbersign" unicode="#" horiz-adv-x="578" 
d="M418 518h42l-23 -127h79v-41h-86l-30 -171h86v-42h-93l-20 -119h-42l20 119h-157l-21 -119h-42l21 119h-85v42h92l29 171h-92v41h100l22 127h42l-22 -127h157zM358 179l30 171h-158l-29 -171h157z" />
    <glyph glyph-name="dollar" unicode="$" horiz-adv-x="553" 
d="M486 163q0 -72 -49.5 -118t-145.5 -52v-105h-32v104q-109 0 -193 42v54q82 -49 193 -49v273q-37 10 -57 16.5t-49.5 20.5t-44.5 29.5t-27 41.5t-12 59q0 71 47.5 118.5t142.5 53.5v94h32v-93q83 -3 161 -38v-51q-84 40 -161 41v-251q35 -10 57.5 -18t51.5 -23.5t45.5 -34
t28.5 -48t12 -66.5zM291 41q68 5 106.5 36.5t38.5 85.5q0 31 -11 54.5t-34 39.5t-44.5 25t-55.5 20v-261zM120 479q0 -26 10.5 -45t32.5 -32.5t42.5 -21.5t53.5 -17v239q-68 -5 -103.5 -37.5t-35.5 -85.5z" />
    <glyph glyph-name="percent" unicode="%" horiz-adv-x="805" 
d="M603 39q44 0 70.5 28t26.5 109t-26.5 108.5t-70.5 27.5t-71 -27.5t-27 -108.5t27 -109t71 -28zM603 349q135 0 135 -173t-135 -173q-136 0 -136 173t136 173zM630 643l-410 -643h-45l411 643h44zM203 331q43 0 70 27.5t27 108.5t-27 108.5t-70 27.5q-44 0 -71 -27.5
t-27 -108.5t27 -108.5t71 -27.5zM203 639q135 0 135 -172q0 -173 -135 -173q-136 0 -136 173q0 172 136 172z" />
    <glyph glyph-name="ampersand" unicode="&#x26;" horiz-adv-x="603" 
d="M473 121l102 -121h-64l-69 80q-79 -89 -190 -89q-92 0 -144 56t-52 132q0 115 138 192q-65 81 -65 148q0 59 37 95.5t97 36.5q64 0 98.5 -38.5t34.5 -95.5q0 -50 -30.5 -84.5t-95.5 -73.5l171 -199q30 49 46 104h49q-17 -72 -63 -143zM264 604q-40 0 -63.5 -25.5
t-23.5 -60.5q0 -49 63 -124q60 32 84 60t24 58q0 41 -21.5 66.5t-62.5 25.5zM255 40q93 0 158 75l-188 221q-67 -37 -93.5 -76.5t-26.5 -85.5q0 -50 39 -92t111 -42z" />
    <glyph glyph-name="quotesingle" unicode="'" horiz-adv-x="233" 
d="M97 451l-12 201h57l-12 -201h-33z" />
    <glyph glyph-name="parenleft" unicode="(" horiz-adv-x="304" 
d="M191 710h53q-22 -38 -44 -87.5t-45.5 -145t-23.5 -189.5q0 -93 23.5 -188t45.5 -145t44 -87h-53q-109 199 -109 420q0 223 109 422z" />
    <glyph glyph-name="parenright" unicode=")" horiz-adv-x="305" 
d="M113 710q109 -199 109 -421t-109 -421h-53q113 200 113 421t-113 421h53z" />
    <glyph glyph-name="asterisk" unicode="*" horiz-adv-x="383" 
d="M307 620l-92 -45l92 -46l-19 -33l-84 57l6 -100h-38l7 100l-85 -57l-19 33l93 46l-93 45l19 32l85 -56l-7 100h38l-6 -100l84 56z" />
    <glyph glyph-name="plus" unicode="+" horiz-adv-x="519" 
d="M432 306v-42h-153v-153h-41v153h-154v42h154v153h41v-153h153z" />
    <glyph glyph-name="comma" unicode="," horiz-adv-x="267" 
d="M131 82h56l-72 -184h-49z" />
    <glyph glyph-name="hyphen" unicode="-" horiz-adv-x="463" 
d="M72 260v48h315v-48h-315z" />
    <glyph glyph-name="period" unicode="." horiz-adv-x="272" 
d="M111 0v79h55v-79h-55z" />
    <glyph glyph-name="slash" unicode="/" horiz-adv-x="380" 
d="M352 731h46l-368 -853h-45z" />
    <glyph glyph-name="zero" unicode="0" horiz-adv-x="615" 
d="M309 651q245 0 245 -331t-245 -331q-246 0 -246 331t246 331zM309 35q93 0 144.5 62.5t51.5 222.5q0 83 -14.5 140.5t-42.5 88t-61.5 43.5t-77.5 13q-93 0 -144.5 -62.5t-51.5 -222.5t51.5 -222.5t144.5 -62.5z" />
    <glyph glyph-name="one" unicode="1" horiz-adv-x="410" 
d="M220 643h55v-643h-49v591l-131 -83v59z" />
    <glyph glyph-name="two" unicode="2" horiz-adv-x="550" 
d="M155 49h323v-49h-405v42q55 42 106.5 87.5t108.5 106t91.5 123t34.5 114.5q0 53 -38.5 91t-124.5 38q-91 0 -172 -50v54q81 46 174 46q106 0 158.5 -53t52.5 -126q0 -175 -309 -424z" />
    <glyph glyph-name="three" unicode="3" 
d="M332 345q41 -4 89 -49t48 -119q0 -81 -58 -133.5t-175 -52.5q-93 0 -168 39v51q71 -40 162 -40q92 0 140.5 35.5t48.5 101.5t-49 102t-143 37h-73v47h74q79 1 120 32t41 88q0 58 -42.5 88.5t-123.5 30.5q-77 0 -141 -33v51q66 32 146 32q106 0 158.5 -48t52.5 -121
q0 -62 -36 -98.5t-71 -40.5z" />
    <glyph glyph-name="four" unicode="4" horiz-adv-x="558" 
d="M412 237h93v-46h-93v-191h-49v191h-323v52l317 400h55v-406zM95 237h268v334z" />
    <glyph glyph-name="five" unicode="5" horiz-adv-x="557" 
d="M119 643h319v-49h-276q-18 -148 -26 -222q63 21 127 21q41 0 76 -9t68 -29.5t52 -61.5t19 -98q0 -60 -21 -102.5t-57.5 -63t-72.5 -29t-78 -8.5q-110 0 -181 38v51q27 -16 75.5 -29t102.5 -13q91 0 137 41.5t46 117.5q0 146 -168 146q-28 0 -55.5 -4t-41 -8t-32.5 -11
l-19 -7l-30 30z" />
    <glyph glyph-name="six" unicode="6" horiz-adv-x="559" 
d="M282 400q98 0 156 -53.5t58 -144.5q0 -86 -53 -148t-161 -62q-219 0 -219 301q0 92 22 161t53.5 105.5t74 59t74 28t64.5 5.5q48 0 86 -11v-45q-52 9 -81 9q-25 0 -49.5 -3.5t-59 -19.5t-60.5 -42t-46.5 -76t-25.5 -118q67 54 167 54zM282 38q40 0 70.5 12t47.5 29.5
t28 41t14.5 43t3.5 38.5q0 73 -43 112.5t-121 39.5q-103 0 -170 -62q0 -254 170 -254z" />
    <glyph glyph-name="seven" unicode="7" horiz-adv-x="550" 
d="M67 643h431v-46l-256 -597h-55l258 594h-378v49z" />
    <glyph glyph-name="eight" unicode="8" horiz-adv-x="554" 
d="M367 349q40 -2 86 -45.5t46 -118.5q0 -81 -55 -137.5t-164 -56.5t-164 56.5t-55 137.5q0 75 46.5 118t86.5 46q-33 2 -70.5 39.5t-37.5 101.5q0 70 48.5 116.5t145.5 46.5t145.5 -46.5t48.5 -116.5q0 -65 -36.5 -101.5t-70.5 -39.5zM135 490q0 -57 38 -89.5t107 -32.5
q68 0 106 32.5t38 89.5q0 60 -40.5 87t-103.5 27q-64 0 -104.5 -27t-40.5 -87zM280 38q49 0 84.5 14.5t52.5 38.5t24.5 47t7.5 47q0 66 -43.5 102t-125.5 36q-81 0 -125.5 -36t-44.5 -102q0 -24 7.5 -47t25 -47t53 -38.5t84.5 -14.5z" />
    <glyph glyph-name="nine" unicode="9" horiz-adv-x="565" 
d="M272 243q-99 0 -156.5 53t-57.5 145q0 86 53 148.5t161 62.5q219 0 219 -303q0 -67 -11.5 -121.5t-30 -90.5t-44.5 -63.5t-51.5 -42.5t-55 -24.5t-51.5 -12t-44 -2.5q-43 0 -86 9v46q40 -9 81 -9q25 0 49.5 3.5t59 19t60 41.5t46.5 76.5t25 117.5q-64 -53 -166 -53z
M272 605q-40 0 -70.5 -12t-47.5 -29.5t-28 -41t-14.5 -43t-3.5 -38.5q0 -73 43 -112.5t121 -39.5q105 0 170 62q0 254 -170 254z" />
    <glyph glyph-name="colon" unicode=":" horiz-adv-x="314" 
d="M131 32v79h55v-79h-55zM131 372v80h55v-80h-55z" />
    <glyph glyph-name="semicolon" unicode=";" horiz-adv-x="337" 
d="M141 372v80h55v-80h-55zM142 82h56l-72 -184h-49z" />
    <glyph glyph-name="less" unicode="&#x3c;" horiz-adv-x="600" 
d="M100 288l395 178v-55l-337 -147l337 -147v-55l-395 179v47z" />
    <glyph glyph-name="equal" unicode="=" horiz-adv-x="578" 
d="M472 223v-48h-368v48h368zM472 393v-47h-368v47h368z" />
    <glyph glyph-name="greater" unicode="&#x3e;" horiz-adv-x="593" 
d="M502 288v-47l-394 -179v55l336 147l-336 147v55z" />
    <glyph glyph-name="question" unicode="?" horiz-adv-x="441" 
d="M195 651q28 0 56.5 -6.5t61 -22.5t52.5 -51.5t20 -85.5q0 -43 -15.5 -73t-37.5 -49l-43.5 -38t-37 -51t-15.5 -77v-32h-50v36q0 50 15.5 86.5t37 57t43.5 38.5t37.5 43t15.5 59q0 59 -40 88t-100 29q-72 0 -128 -37v53q59 33 128 33zM183 0v79h55v-79h-55z" />
    <glyph glyph-name="at" unicode="@" horiz-adv-x="913" 
d="M506 602q61 0 119.5 -21t107.5 -60.5t79 -105t30 -145.5q0 -100 -44.5 -168t-114.5 -68q-44 0 -69.5 22t-33.5 53q-13 -33 -51.5 -54t-92.5 -21q-59 0 -99.5 27.5t-40.5 79.5q0 58 51 96.5t152 38.5q43 0 88 -8q0 6 1 17t1 16q0 42 -22 64.5t-87 22.5q-62 0 -112 -18
l5 39q56 18 111 18q145 0 145 -128q0 -25 -8.5 -81.5t-8.5 -81.5q0 -74 65 -74q58 0 98.5 56.5t40.5 148.5q0 142 -91.5 225.5t-218.5 83.5q-102 0 -194 -52.5t-150 -146.5t-58 -205q0 -74 27.5 -133.5t73.5 -95.5t101 -54.5t114 -18.5q105 0 191 46l-7 -31
q-81 -40 -189 -40q-88 0 -164 37t-125 113.5t-49 178.5q0 119 64.5 219t162.5 154.5t202 54.5zM438 71q110 0 130 75q4 16 14 86q-35 7 -79 7q-75 0 -121 -23t-46 -73q0 -39 31 -55.5t71 -16.5z" />
    <glyph glyph-name="A" unicode="A" horiz-adv-x="626" 
d="M336 643l261 -643h-53l-82 204h-302l-81 -204h-54l262 643h49zM311 583l-132 -332h265z" />
    <glyph glyph-name="B" unicode="B" horiz-adv-x="586" 
d="M405 339q15 -1 34 -10t42 -26t38 -51t15 -77q0 -86 -58.5 -130.5t-164.5 -44.5h-233v643h211q110 0 159 -46t49 -117q0 -63 -30.5 -99.5t-61.5 -41.5zM315 46q169 0 169 133q0 129 -171 129h-186v-262h188zM448 474q0 122 -154 122h-167v-242h173q148 0 148 120z" />
    <glyph glyph-name="C" unicode="C" horiz-adv-x="592" 
d="M110 321q0 -283 254 -283q96 0 187 35v-47q-97 -35 -192 -35q-140 0 -219 80t-79 250t79 251t218 81q99 0 193 -37v-47q-97 37 -187 37q-254 0 -254 -285z" />
    <glyph glyph-name="D" unicode="D" horiz-adv-x="633" 
d="M77 643h196q304 0 304 -322q0 -321 -304 -321h-196v643zM127 597v-551h142q132 0 195 67t63 208t-62.5 208.5t-195.5 67.5h-142z" />
    <glyph glyph-name="E" unicode="E" horiz-adv-x="529" 
d="M127 597v-249h308v-48h-308v-253h349v-47h-398v643h398v-46h-349z" />
    <glyph glyph-name="F" unicode="F" horiz-adv-x="506" 
d="M78 643h387v-46h-338v-250h297v-48h-297v-299h-49v643z" />
    <glyph glyph-name="G" unicode="G" horiz-adv-x="643" 
d="M345 338h230v-301q-97 -45 -216 -45q-140 0 -219.5 79.5t-79.5 249.5q0 169 79.5 250t218.5 81q99 0 197 -38v-48q-97 38 -191 38q-254 0 -254 -283q0 -150 66 -216.5t188 -66.5q82 0 161 27v225h-180v48z" />
    <glyph glyph-name="H" unicode="H" horiz-adv-x="629" 
d="M498 643h50v-643h-50v298h-371v-298h-49v643h49v-297h371v297z" />
    <glyph glyph-name="I" unicode="I" horiz-adv-x="211" 
d="M78 643h49v-643h-49v643z" />
    <glyph glyph-name="J" unicode="J" horiz-adv-x="414" 
d="M281 643h50v-461q0 -103 -49 -147t-125 -44q-68 0 -125 32v51q54 -34 119 -34q68 0 99 35t31 111v457z" />
    <glyph glyph-name="K" unicode="K" horiz-adv-x="558" 
d="M242 343l298 -343h-65l-265 308l-83 -90v-217h-49v642h49v-357l323 357h66z" />
    <glyph glyph-name="L" unicode="L" horiz-adv-x="491" 
d="M127 48h337v-48h-386v643h49v-595z" />
    <glyph glyph-name="M" unicode="M" horiz-adv-x="743" 
d="M609 643h54v-643h-50v561l-243 -348l-243 348v-561h-49v643h53l239 -348z" />
    <glyph glyph-name="N" unicode="N" horiz-adv-x="669" 
d="M588 0h-55l-406 569v-569h-50v643h56l405 -570v570h50v-643z" />
    <glyph glyph-name="O" unicode="O" horiz-adv-x="719" 
d="M357 653q297 0 297 -331t-297 -331q-296 0 -296 331t296 331zM357 38q128 0 187.5 69.5t59.5 214.5q0 144 -59.5 214t-187.5 70t-187.5 -70t-59.5 -214q0 -145 59.5 -214.5t187.5 -69.5z" />
    <glyph glyph-name="P" unicode="P" horiz-adv-x="551" 
d="M77 643h216q105 0 161.5 -51.5t56.5 -143.5q0 -94 -57.5 -144.5t-161.5 -50.5h-166v-252h-49v642zM287 595h-161v-295h160q176 0 176 148q0 147 -175 147z" />
    <glyph glyph-name="Q" unicode="Q" horiz-adv-x="716" 
d="M654 322q0 -315 -270 -330q22 -105 147 -110v-45q-53 1 -91.5 16t-59.5 40t-31.5 48.5t-14.5 50.5q-273 13 -273 330q0 331 296 331q297 0 297 -331zM357 38q128 0 187.5 69.5t59.5 214.5q0 144 -59.5 214t-187.5 70t-187.5 -70t-59.5 -214q0 -145 59.5 -214.5
t187.5 -69.5z" />
    <glyph glyph-name="R" unicode="R" horiz-adv-x="582" 
d="M543 0h-58l-173 267h-185v-267h-50v643h228q102 0 157.5 -48t55.5 -137q0 -47 -16 -83t-42 -56t-49.5 -30t-46.5 -14zM302 596h-175v-282h175q166 0 166 141t-166 141z" />
    <glyph glyph-name="S" unicode="S" horiz-adv-x="543" 
d="M115 479q0 -34 20 -57t52.5 -36t72 -24t78.5 -24.5t71.5 -33t52.5 -55t20 -85.5q0 -78 -58 -125.5t-167 -47.5q-106 0 -196 44v53q84 -48 192 -48q80 0 129 31.5t49 92.5q0 56 -38 88.5t-91.5 47.5l-107.5 30.5t-92 51.5t-38 97q0 74 52.5 124t159.5 50q89 0 171 -39v-51
q-78 41 -166 41q-81 0 -123.5 -33t-42.5 -92z" />
    <glyph glyph-name="T" unicode="T" horiz-adv-x="553" 
d="M17 643h517v-48h-233v-595h-50v595h-234v48z" />
    <glyph glyph-name="U" unicode="U" horiz-adv-x="661" 
d="M73 643h50v-392q0 -215 204 -215q205 0 205 215v392h50v-390q0 -127 -66 -194t-189 -67t-188.5 67t-65.5 194v390z" />
    <glyph glyph-name="V" unicode="V" horiz-adv-x="600" 
d="M274 0l-255 643h53l227 -572l226 572h53l-255 -643h-49z" />
    <glyph glyph-name="W" unicode="W" horiz-adv-x="911" 
d="M456 564l-180 -564h-50l-207 643h53l179 -573l181 573h49l180 -573l179 573h53l-207 -643h-49z" />
    <glyph glyph-name="X" unicode="X" horiz-adv-x="571" 
d="M315 326l230 -326h-59l-202 283l-201 -283h-60l231 326l-224 317h59l195 -275l196 275h60z" />
    <glyph glyph-name="Y" unicode="Y" horiz-adv-x="567" 
d="M488 643h59l-239 -360v-283h-50v283l-240 360h60l205 -312z" />
    <glyph glyph-name="Z" unicode="Z" horiz-adv-x="587" 
d="M64 0v42l392 555h-381v46h445v-42l-393 -556h396v-45h-459z" />
    <glyph glyph-name="bracketleft" unicode="[" horiz-adv-x="339" 
d="M148 645v-732h120v-47h-169v826h169v-47h-120z" />
    <glyph glyph-name="backslash" unicode="\" horiz-adv-x="357" 
d="M15 731l367 -853h-45l-367 853h45z" />
    <glyph glyph-name="bracketright" unicode="]" horiz-adv-x="348" 
d="M194 645h-118v47h168v-826h-168v47h118v732z" />
    <glyph glyph-name="asciicircum" unicode="^" horiz-adv-x="494" 
d="M237 633l-92 -181h-41l113 221h38l114 -221h-42z" />
    <glyph glyph-name="underscore" unicode="_" horiz-adv-x="502" 
d="M0 -24h501v-30h-501v30z" />
    <glyph glyph-name="grave" unicode="`" horiz-adv-x="231" 
d="M48 707h56l78 -137h-38z" />
    <glyph glyph-name="a" unicode="a" horiz-adv-x="521" 
d="M248 493q207 0 207 -203v-148q0 -38 -15 -66t-36 -43.5t-50 -25t-51 -12t-44 -2.5q-29 0 -59 5.5t-64.5 20t-56.5 47t-22 78.5q0 43 20.5 74t47.5 46.5t64 24.5t58 10.5t42 1.5q63 0 116 -10q0 153 -160 153q-66 0 -138 -22v48q69 23 141 23zM406 142v104q-58 9 -123 9
q-21 0 -42 -2t-46.5 -9t-44 -18.5t-31.5 -32.5t-13 -49q0 -32 15 -54t39.5 -32.5t48.5 -15t50 -4.5t48.5 4t46.5 14.5t38 32.5t14 53z" />
    <glyph glyph-name="b" unicode="b" horiz-adv-x="543" 
d="M262 494q34 0 63.5 -6t59.5 -22.5t51.5 -43.5t35 -71.5t13.5 -103.5q0 -64 -15 -111.5t-37 -74.5t-53 -43t-57 -21t-54 -5q-50 0 -88 12.5t-57.5 30t-31 40.5t-14.5 38.5t-3 29.5v530h50v-203q66 24 137 24zM269 38q31 0 56 7t52 27t42.5 64.5t15.5 110.5q0 108 -44 154
t-129 46q-73 0 -137 -27v-279q0 -43 34.5 -73t109.5 -30z" />
    <glyph glyph-name="c" unicode="c" horiz-adv-x="462" 
d="M108 243q0 -109 47.5 -156t135.5 -47q70 0 136 26v-48q-69 -26 -141 -26q-34 0 -63.5 6t-60.5 22.5t-53 43.5t-36 73t-14 106q0 74 20 126t55.5 78t72 36.5t79.5 10.5q68 0 141 -26v-48q-70 26 -136 26q-88 0 -135.5 -47t-47.5 -156z" />
    <glyph glyph-name="d" unicode="d" horiz-adv-x="546" 
d="M62 247q0 73 19.5 123.5t53.5 76t70 36t79 10.5q74 0 138 -23v202h49v-529q0 -15 -3 -30.5t-14.5 -38.5t-31 -40t-57.5 -29.5t-88 -12.5q-28 0 -54 5t-56.5 21t-52.5 43t-37 74.5t-15 111.5zM112 247q0 -53 11 -92.5t27 -61.5t39.5 -35t43.5 -16.5t44 -3.5q75 0 110 30
t35 73v279q-65 27 -138 27q-84 0 -128 -46.5t-44 -153.5z" />
    <glyph glyph-name="e" unicode="e" 
d="M277 493q42 0 76.5 -12.5t55.5 -31.5t37 -46t23 -49.5t11.5 -49.5t5 -39.5t0.5 -24.5v-11v-7.5t-0.5 -4t-0.5 -2.5v-1h-373q1 -25 9 -43q19 -130 174 -130q96 0 158 34v-51q-66 -31 -162 -31q-45 0 -83 11t-72.5 36t-54.5 74.5t-20 118.5q0 28 3.5 57t17.5 67.5t36 67
t63 48.5t96 20zM274 446q-77 0 -117.5 -49t-44.5 -139h323q0 13 -1.5 29.5t-10.5 46.5t-25 53t-48 41t-76 18z" />
    <glyph glyph-name="f" unicode="f" horiz-adv-x="316" 
d="M269 642q-21 0 -33.5 -2t-31 -11.5t-28 -34.5t-9.5 -65v-44h144v-44h-144v-441h-50v441h-77v44h77v44q0 45 12 77t27.5 47.5t39 24t36 9.5t29.5 1q27 0 53 -7v-44q-22 5 -45 5z" />
    <glyph glyph-name="g" unicode="g" horiz-adv-x="522" 
d="M267 494q50 0 87 -12.5t56 -29t30.5 -39t14 -37.5t2.5 -29v-373q0 -165 -210 -165q-72 0 -134 16v47q64 -16 128 -16q98 0 132.5 32t34.5 84v61q-67 -25 -135 -25q-216 0 -216 238q0 62 14.5 108.5t36 72.5t51.5 41.5t55 20.5t53 5zM408 83v266q0 41 -33.5 70t-107.5 29
q-30 0 -54 -7t-50 -26t-41 -62t-15 -107q0 -60 14 -100.5t40 -59t52 -25.5t60 -7q69 0 135 29z" />
    <glyph glyph-name="h" unicode="h" horiz-adv-x="549" 
d="M299 494q88 0 135.5 -50t47.5 -147v-297h-49v297q0 147 -140 147q-77 0 -161 -37v-407h-50v672h50v-217q90 39 167 39z" />
    <glyph glyph-name="i" unicode="i" horiz-adv-x="220" 
d="M82 575v74h55v-74h-55zM85 0v485h49v-485h-49z" />
    <glyph glyph-name="j" unicode="j" horiz-adv-x="226" 
d="M101 -42v527h49v-509q0 -52 -12.5 -86.5t-36 -51.5t-47.5 -23t-57 -6v46q53 0 78.5 23t25.5 80zM98 649h55v-74h-55v74z" />
    <glyph glyph-name="k" unicode="k" horiz-adv-x="475" 
d="M233 265l234 -265h-66l-201 230l-69 -74v-156h-50v672h50v-446l242 259h67z" />
    <glyph glyph-name="l" unicode="l" horiz-adv-x="230" 
d="M140 0h-50v672h50v-672z" />
    <glyph glyph-name="m" unicode="m" horiz-adv-x="865" 
d="M604 494q86 0 133 -45.5t47 -132.5v-316h-50v316q0 128 -133 128q-78 0 -160 -38q17 -40 17 -90v-316h-50v316q0 60 -30 94t-105 34q-70 0 -141 -30v-414h-50v443q99 51 197 51q88 0 133 -50q95 50 192 50z" />
    <glyph glyph-name="n" unicode="n" horiz-adv-x="550" 
d="M283 494q90 0 139 -45t49 -133v-316h-50v316q0 128 -143 128q-75 0 -154 -31v-413h-49v442q98 52 208 52z" />
    <glyph glyph-name="o" unicode="o" horiz-adv-x="559" 
d="M280 494q43 0 80 -11t72 -37t55 -77.5t20 -125.5t-20 -125.5t-55 -77.5t-72 -37t-80 -11t-80 11t-72 37t-55 77.5t-20 125.5t20 125.5t55 77.5t72 37t80 11zM280 38q85 0 131.5 48t46.5 157t-46.5 157t-131.5 48q-178 0 -178 -205t178 -205z" />
    <glyph glyph-name="p" unicode="p" horiz-adv-x="544" 
d="M269 494q28 0 54 -5t56.5 -21.5t52.5 -43t37 -74.5t15 -112q0 -72 -19.5 -123t-53.5 -76.5t-70 -36t-79 -10.5q-71 0 -138 24v-200h-49v527q0 15 3 30.5t14.5 38.5t31 40t57.5 29.5t88 12.5zM262 39q85 0 128.5 46t43.5 154q0 209 -165 209q-75 0 -110 -30t-35 -73v-279
q62 -27 138 -27z" />
    <glyph glyph-name="q" unicode="q" horiz-adv-x="545" 
d="M57 238q0 64 15 112t37 74.5t52.5 43t56.5 21.5t54 5q50 0 88 -12.5t57.5 -29.5t31 -40t14.5 -38.5t3 -30.5v-527h-49v200q-67 -24 -137 -24q-43 0 -79.5 10.5t-70.5 36t-53.5 76.5t-19.5 123zM107 239q0 -108 44 -154t129 -46q76 0 137 27v279q0 43 -35 73t-110 30
q-165 0 -165 -209z" />
    <glyph glyph-name="r" unicode="r" horiz-adv-x="318" 
d="M302 445q-83 -2 -179 -30v-415h-49v447q105 45 228 46v-48z" />
    <glyph glyph-name="s" unicode="s" horiz-adv-x="424" 
d="M103 359q0 -32 28.5 -50.5t69 -29t80.5 -23.5t68.5 -45.5t28.5 -84.5q0 -60 -45.5 -97t-130.5 -37q-82 0 -152 35v52q73 -38 150 -38q58 0 93 22t35 63q0 40 -28.5 63t-69 33.5t-80.5 22t-68.5 39.5t-28.5 75q0 57 41 96t124 39q63 0 131 -29v-49q-62 30 -126 30
q-52 0 -86 -21.5t-34 -65.5z" />
    <glyph glyph-name="t" unicode="t" horiz-adv-x="329" 
d="M236 39q31 0 59 10v-47q-34 -9 -65 -9q-127 0 -127 125v323h-78v44h78v137h50v-137h140v-44h-140v-321q0 -81 83 -81z" />
    <glyph glyph-name="u" unicode="u" horiz-adv-x="558" 
d="M428 198v287h50v-284q0 -100 -53 -154t-149 -54q-97 0 -149.5 54t-52.5 154v284h50v-287q0 -160 152 -160t152 160z" />
    <glyph glyph-name="v" unicode="v" horiz-adv-x="493" 
d="M246 62l168 423h53l-196 -485h-50l-196 485h53z" />
    <glyph glyph-name="w" unicode="w" horiz-adv-x="748" 
d="M374 411l-129 -411h-49l-169 485h53l141 -414l129 414h47l131 -414l141 414h52l-168 -485h-50z" />
    <glyph glyph-name="x" unicode="x" horiz-adv-x="490" 
d="M34 0l178 245l-173 240h58l145 -202l144 202h61l-175 -241l178 -244h-59l-149 208l-148 -208h-60z" />
    <glyph glyph-name="y" unicode="y" horiz-adv-x="482" 
d="M246 65l155 420h53l-203 -543q-50 -133 -148 -133q-23 0 -46 9v46q18 -9 41 -9q22 0 39 8.5t29.5 26.5t20.5 32.5t19 40.5l16 37l-189 485h54z" />
    <glyph glyph-name="z" unicode="z" horiz-adv-x="457" 
d="M406 44v-44h-357v44l292 396h-284v45h345v-43l-293 -398h297z" />
    <glyph glyph-name="braceleft" unicode="{" horiz-adv-x="335" 
d="M77 264v33q65 29 65 84v155q0 74 34 115t101 41v-47q-85 -2 -85 -93v-171q0 -58 -62 -101q62 -43 62 -100v-171q0 -90 85 -93v-46q-67 0 -101 41.5t-34 113.5v155q0 55 -65 84z" />
    <glyph glyph-name="bar" unicode="|" horiz-adv-x="349" 
d="M198 -123h-49v794h49v-794z" />
    <glyph glyph-name="braceright" unicode="}" horiz-adv-x="333" 
d="M267 297v-33q-65 -29 -65 -84v-155q0 -72 -34 -113.5t-101 -41.5v46q85 3 85 93v171q0 57 63 100q-63 43 -63 101v171q0 91 -85 93v47q67 0 101 -41t34 -115v-155q0 -55 65 -84z" />
    <glyph glyph-name="asciitilde" unicode="~" horiz-adv-x="495" 
d="M412 311q2 -28 2 -40q-33 -53 -79 -53q-31 0 -85.5 32t-84.5 32q-48 0 -82 -50l-2 40q34 52 82 52q31 0 86.5 -32t85.5 -32q44 0 77 51z" />
    <glyph glyph-name="exclamdown" unicode="&#xa1;" horiz-adv-x="302" 
d="M180 486v-79h-55v79h55zM177 -157h-49l4 477h40z" />
    <glyph glyph-name="cent" unicode="&#xa2;" horiz-adv-x="465" 
d="M426 511q-66 25 -130 25v-405q66 0 130 26v-49q-64 -24 -130 -25v-83h-34v84q-204 15 -204 250q0 69 17.5 118.5t48.5 76t64.5 39.5t73.5 15v80h34v-79q66 -1 130 -25v-48zM108 334q0 -187 154 -201v402q-154 -15 -154 -201z" />
    <glyph glyph-name="sterling" unicode="&#xa3;" horiz-adv-x="533" 
d="M344 607q-87 0 -123.5 -37.5t-36.5 -91.5v-153h215v-45h-215v-223q30 -2 102 -16.5t113 -14.5q49 0 87 14v-50q-38 -14 -87 -14q-44 0 -125.5 16.5t-123.5 16.5q-56 0 -102 -20v50q39 17 87 19v222h-87v45h87v151q0 74 50 126.5t155 52.5q76 0 146 -37v-50
q-66 39 -142 39z" />
    <glyph glyph-name="yen" unicode="&#xa5;" horiz-adv-x="570" 
d="M552 643l-218 -322h140v-42h-162v-102h162v-42h-162v-135h-50v135h-161v42h161v102h-161v42h139l-218 322h61l204 -303l204 303h61z" />
    <glyph glyph-name="section" unicode="&#xa7;" horiz-adv-x="524" 
d="M292 664q74 0 142 -27v-49q-68 29 -138 29q-56 0 -96 -19t-40 -60q0 -27 28 -45.5t107 -38.5q39 -10 64.5 -19.5t54 -26t42.5 -41.5t14 -59q0 -37 -26.5 -64t-71.5 -37q43 -31 43 -83q0 -55 -48.5 -89.5t-140.5 -34.5q-95 0 -164 31v50q66 -34 161 -34q59 0 100 24.5
t41 59.5q0 31 -28.5 52t-105.5 41q-83 21 -126.5 49t-43.5 84q0 43 28 69.5t73 35.5q-49 27 -49 81q0 51 46 86t134 35zM421 308q0 32 -26 53.5t-97 40.5q-68 18 -98 29q-41 -4 -66 -23t-25 -51q0 -27 26 -45t94 -36q80 -21 111 -37q81 14 81 69z" />
    <glyph glyph-name="dieresis" unicode="&#xa8;" horiz-adv-x="352" 
d="M73 570v78h54v-78h-54zM221 570v78h54v-78h-54z" />
    <glyph glyph-name="copyright" unicode="&#xa9;" horiz-adv-x="757" 
d="M238 321q0 -169 152 -169q58 0 110 21v-28q-51 -20 -114 -20q-177 0 -177 196q0 101 47 149t130 48q54 0 114 -21v-28q-58 21 -111 21q-151 0 -151 -169zM378 651q136 0 233 -96.5t97 -233.5q0 -136 -96.5 -232.5t-233.5 -96.5t-234 96.5t-97 232.5t97 233t234 97z
M378 16q126 0 215.5 89.5t89.5 215.5t-89.5 216t-215.5 90t-216 -90t-90 -216t90 -215.5t216 -89.5z" />
    <glyph glyph-name="ordfeminine" unicode="&#xaa;" horiz-adv-x="368" 
d="M173 670q116 0 116 -112v-84q0 -33 -21.5 -53t-43.5 -24.5t-45 -4.5q-24 0 -46.5 5t-44.5 25.5t-22 54.5q0 26 13.5 44.5t35 27t40 11.5t37.5 3h20q14 0 31 -2.5t18 -2.5q0 85 -89 85q-38 0 -77 -12v27q34 12 78 12zM261 475v58l-17 3q-18 2 -34 2q-116 0 -116 -61
q0 -60 85 -60q82 0 82 58z" />
    <glyph glyph-name="guillemotleft" unicode="&#xab;" horiz-adv-x="538" 
d="M281 447l-184 -192l184 -191h-67l-178 191l178 192h67zM476 447l-183 -192l183 -191h-66l-178 191l178 192h66z" />
    <glyph glyph-name="logicalnot" unicode="&#xac;" horiz-adv-x="579" 
d="M87 310h408v-149h-46v103h-362v46z" />
    <glyph glyph-name="registered" unicode="&#xae;" horiz-adv-x="757" 
d="M378 651q136 0 233 -96.5t97 -233.5q0 -136 -96.5 -232.5t-233.5 -96.5t-234 96.5t-97 232.5t97 233t234 97zM378 16q126 0 215.5 89.5t89.5 215.5t-89.5 216t-215.5 90t-216 -90t-90 -216t90 -215.5t216 -89.5zM527 403q0 -54 -31.5 -80.5t-68.5 -29.5l113 -163h-34
l-109 159h-110v-159h-29v382h140q61 0 95 -28t34 -81zM287 485v-168h109q101 0 101 84t-101 84h-109z" />
    <glyph glyph-name="macron" unicode="&#xaf;" horiz-adv-x="375" 
d="M77 582v37h220v-37h-220z" />
    <glyph glyph-name="degree" unicode="&#xb0;" horiz-adv-x="371" 
d="M184 666q51 0 81 -30t30 -82t-30 -82t-81 -30q-52 0 -81.5 30t-29.5 82t29.5 82t81.5 30zM184 467q41 0 63 22.5t22 64.5q0 41 -22 63.5t-63 22.5t-63.5 -22.5t-22.5 -63.5q0 -42 22.5 -64.5t63.5 -22.5z" />
    <glyph glyph-name="plusminus" unicode="&#xb1;" horiz-adv-x="542" 
d="M290 321h153v-42h-153v-153h-42v153h-153v42h153v152h42v-152zM95 22v41h348v-41h-348z" />
    <glyph glyph-name="acute" unicode="&#xb4;" horiz-adv-x="241" 
d="M138 707h56l-96 -137h-38z" />
    <glyph glyph-name="mu" unicode="&#xb5;" horiz-adv-x="570" 
d="M85 -200v685h50v-315q0 -60 31.5 -94t111.5 -34q78 0 153 31v412h50v-441q-96 -51 -208 -51q-56 0 -94.5 20t-43.5 44v-257h-50z" />
    <glyph glyph-name="paragraph" unicode="&#xb6;" horiz-adv-x="424" 
d="M265 659h78v-644h-46v256h-32q-108 0 -164.5 49.5t-56.5 145.5q0 95 56.5 144t164.5 49z" />
    <glyph glyph-name="periodcentered" unicode="&#xb7;" horiz-adv-x="262" 
d="M158 314v-79h-54v79h54z" />
    <glyph glyph-name="cedilla" unicode="&#xb8;" horiz-adv-x="271" 
d="M115 -141h-58l98 138h38z" />
    <glyph glyph-name="ordmasculine" unicode="&#xba;" horiz-adv-x="398" 
d="M199 672q33 0 59 -10t46.5 -43.5t20.5 -87.5q0 -78 -36.5 -108.5t-89.5 -30.5q-127 0 -127 139q0 79 37 110t90 31zM199 418q98 0 98 113q0 115 -98 115q-100 0 -100 -115q0 -113 100 -113z" />
    <glyph glyph-name="guillemotright" unicode="&#xbb;" 
d="M255 63l183 192l-183 191h67l178 -191l-178 -192h-67zM60 63l182 192l-182 191h66l178 -191l-178 -192h-66z" />
    <glyph glyph-name="questiondown" unicode="&#xbf;" horiz-adv-x="439" 
d="M211 320h49v-36q0 -50 -15.5 -86.5t-37 -57t-43.5 -38.5t-37.5 -43t-15.5 -59q0 -56 37.5 -85.5t100.5 -29.5q73 0 131 35v-53l-10 -5q-10 -5 -21 -9t-26.5 -8.5t-34 -7.5t-37.5 -3q-28 0 -56.5 6.5t-61 22.5t-52.5 51.5t-20 85.5q0 43 15.5 73t37.5 49l44 38t37.5 51
t15.5 77v32zM263 485v-79h-55v79h55z" />
    <glyph glyph-name="Agrave" unicode="&#xc0;" horiz-adv-x="626" 
d="M336 643l261 -643h-53l-82 204h-302l-81 -204h-54l262 643h49zM311 583l-132 -332h265zM211 852h56l78 -138h-38z" />
    <glyph glyph-name="Aacute" unicode="&#xc1;" horiz-adv-x="626" 
d="M336 643l261 -643h-53l-82 204h-302l-81 -204h-54l262 643h49zM311 583l-132 -332h265zM357 852h56l-96 -138h-38z" />
    <glyph glyph-name="Acircumflex" unicode="&#xc2;" horiz-adv-x="626" 
d="M336 643l261 -643h-53l-82 204h-302l-81 -204h-54l262 643h49zM311 583l-132 -332h265zM334 852l102 -138h-48l-77 108l-78 -108h-46l101 138h46z" />
    <glyph glyph-name="Atilde" unicode="&#xc3;" horiz-adv-x="626" 
d="M336 643l261 -643h-53l-82 204h-302l-81 -204h-54l262 643h49zM311 583l-132 -332h265zM184 721l-2 39q33 44 65 44q24 0 68.5 -26t66.5 -26q31 0 60 40q0 -6 0.5 -18.5t0.5 -18.5q-32 -46 -63 -46q-24 0 -69 25.5t-67 25.5q-34 0 -60 -39z" />
    <glyph glyph-name="Adieresis" unicode="&#xc4;" horiz-adv-x="626" 
d="M336 643l261 -643h-53l-82 204h-302l-81 -204h-54l262 643h49zM311 583l-132 -332h265zM210 714v78h54v-78h-54zM359 714v78h54v-78h-54z" />
    <glyph glyph-name="Aring" unicode="&#xc5;" horiz-adv-x="626" 
d="M336 643l261 -643h-53l-82 204h-302l-81 -204h-54l262 643h49zM311 583l-132 -332h265zM311 848q-54 0 -54 -59q0 -31 13 -45t41 -14q55 0 55 59t-55 59zM311 874q83 0 83 -85q0 -86 -83 -86q-40 0 -61.5 22t-21.5 64q0 41 21.5 63t61.5 22z" />
    <glyph glyph-name="AE" unicode="&#xc6;" horiz-adv-x="900" 
d="M496 596v-249h300v-48h-300v-252h341v-47h-391v204h-259l-126 -204h-57l402 643h431v-47h-341zM446 253v341h-16l-213 -341h229z" />
    <glyph glyph-name="Ccedilla" unicode="&#xc7;" horiz-adv-x="592" 
d="M364 606q-254 0 -254 -285q0 -283 254 -283q96 0 187 35v-47q-84 -31 -170 -34l-76 -133h-56l94 132q-132 5 -207 85t-75 245q0 170 79 251t218 81q99 0 193 -37v-47q-97 37 -187 37z" />
    <glyph glyph-name="Egrave" unicode="&#xc8;" horiz-adv-x="529" 
d="M127 597v-249h308v-48h-308v-253h349v-47h-398v643h398v-46h-349zM181 852h55l78 -137h-38z" />
    <glyph glyph-name="Eacute" unicode="&#xc9;" horiz-adv-x="529" 
d="M127 597v-249h308v-48h-308v-253h349v-47h-398v643h398v-46h-349zM317 852h56l-96 -137h-38z" />
    <glyph glyph-name="Ecircumflex" unicode="&#xca;" horiz-adv-x="529" 
d="M476 643v-47h-349v-249h308v-47h-308v-254h349v-46h-399v643h399zM299 852l102 -138h-48l-77 108l-78 -108h-46l102 138h45z" />
    <glyph glyph-name="Edieresis" unicode="&#xcb;" horiz-adv-x="529" 
d="M127 597v-249h308v-48h-308v-253h349v-47h-398v643h398v-46h-349zM179 715v78h54v-78h-54zM328 715v78h54v-78h-54z" />
    <glyph glyph-name="Igrave" unicode="&#xcc;" horiz-adv-x="211" 
d="M78 643h49v-643h-49v643zM5 852h56l78 -137h-38z" />
    <glyph glyph-name="Iacute" unicode="&#xcd;" horiz-adv-x="211" 
d="M78 643h49v-643h-49v643zM145 852h56l-96 -137h-38z" />
    <glyph glyph-name="Icircumflex" unicode="&#xce;" horiz-adv-x="211" 
d="M77 643h50v-643h-50v643zM125 852l102 -138h-48l-77 108l-78 -108h-45l100 138h46z" />
    <glyph glyph-name="Idieresis" unicode="&#xcf;" horiz-adv-x="211" 
d="M78 643h49v-643h-49v643zM1 715v78h55v-78h-55zM150 715v78h54v-78h-54z" />
    <glyph glyph-name="Eth" unicode="&#xd0;" horiz-adv-x="684" 
d="M48 300v41h78v302h195q304 0 304 -322q0 -321 -304 -321h-195v300h-78zM176 597v-256h188v-41h-188v-254h142q132 0 195 67t63 208t-62.5 208.5t-195.5 67.5h-142z" />
    <glyph glyph-name="Ntilde" unicode="&#xd1;" horiz-adv-x="669" 
d="M588 0h-55l-406 569v-569h-50v643h56l405 -570v570h50v-643zM206 721q0 7 -0.5 20t-0.5 19q32 44 65 44q24 0 68.5 -26t66.5 -26q32 0 59 40l2 -37q-33 -46 -64 -46q-24 0 -68.5 25.5t-67.5 25.5q-32 0 -60 -39z" />
    <glyph glyph-name="Ograve" unicode="&#xd2;" horiz-adv-x="719" 
d="M357 653q297 0 297 -331t-297 -331q-296 0 -296 331t296 331zM357 38q128 0 187.5 69.5t59.5 214.5q0 144 -59.5 214t-187.5 70t-187.5 -70t-59.5 -214q0 -145 59.5 -214.5t187.5 -69.5zM256 852h56l78 -137h-38z" />
    <glyph glyph-name="Oacute" unicode="&#xd3;" horiz-adv-x="719" 
d="M357 653q297 0 297 -331t-297 -331q-296 0 -296 331t296 331zM357 38q128 0 187.5 69.5t59.5 214.5q0 144 -59.5 214t-187.5 70t-187.5 -70t-59.5 -214q0 -145 59.5 -214.5t187.5 -69.5zM397 852h57l-97 -137h-38z" />
    <glyph glyph-name="Ocircumflex" unicode="&#xd4;" horiz-adv-x="719" 
d="M357 38q128 0 187.5 69.5t59.5 214.5q0 144 -59.5 213.5t-187.5 69.5t-187.5 -69.5t-59.5 -213.5q0 -145 59 -214.5t188 -69.5zM357 -8q-297 0 -297 330t297 330q296 0 296 -330t-296 -330zM379 852l102 -138h-48l-77 108l-78 -108h-46l101 138h46z" />
    <glyph glyph-name="Otilde" unicode="&#xd5;" horiz-adv-x="719" 
d="M357 38q128 0 187.5 69.5t59.5 214.5q0 144 -59.5 213.5t-187.5 69.5t-187.5 -69.5t-59.5 -213.5q0 -145 59 -214.5t188 -69.5zM357 -8q-297 0 -297 330t297 330q296 0 296 -330t-296 -330zM226 721q0 7 -0.5 20t-0.5 19q32 44 65 44q24 0 68.5 -26t66.5 -26q30 0 59 40
l2 -37q-33 -46 -64 -46q-24 0 -68.5 25.5t-67.5 25.5q-32 0 -60 -39z" />
    <glyph glyph-name="Odieresis" unicode="&#xd6;" horiz-adv-x="719" 
d="M357 653q297 0 297 -331t-297 -331q-296 0 -296 331t296 331zM357 38q128 0 187.5 69.5t59.5 214.5q0 144 -59.5 214t-187.5 70t-187.5 -70t-59.5 -214q0 -145 59.5 -214.5t187.5 -69.5zM256 715v78h54v-78h-54zM404 715v78h54v-78h-54z" />
    <glyph glyph-name="Oslash" unicode="&#xd8;" horiz-adv-x="719" 
d="M643 643l-63 -77q74 -82 74 -244q0 -331 -297 -331q-121 0 -194 56l-38 -47h-54l62 77q-72 79 -72 245q0 331 296 331q120 0 194 -57l39 47h53zM110 322q0 -139 56 -207l354 444q-59 47 -163 47q-128 0 -187.5 -70t-59.5 -214zM604 322q0 138 -56 206l-354 -444
q59 -46 163 -46q128 0 187.5 69.5t59.5 214.5z" />
    <glyph glyph-name="Ugrave" unicode="&#xd9;" horiz-adv-x="661" 
d="M73 643h50v-392q0 -215 204 -215q205 0 205 215v392h50v-390q0 -127 -66 -194t-189 -67t-188.5 67t-65.5 194v390zM237 852h56l78 -138h-38z" />
    <glyph glyph-name="Uacute" unicode="&#xda;" horiz-adv-x="661" 
d="M73 643h50v-392q0 -215 204 -215q205 0 205 215v392h50v-390q0 -127 -66 -194t-189 -67t-188.5 67t-65.5 194v390zM368 852h57l-97 -138h-38z" />
    <glyph glyph-name="Ucircumflex" unicode="&#xdb;" horiz-adv-x="661" 
d="M73 643h50v-392q0 -215 204 -215q205 0 205 215v392h50v-390q0 -127 -66 -194t-189 -67t-188.5 67t-65.5 194v390zM350 852l102 -138h-48l-77 108l-78 -108h-46l102 138h45z" />
    <glyph glyph-name="Udieresis" unicode="&#xdc;" horiz-adv-x="661" 
d="M73 643h50v-392q0 -215 204 -215q205 0 205 215v392h50v-390q0 -127 -66 -194t-189 -67t-188.5 67t-65.5 194v390zM226 714v78h54v-78h-54zM375 714v78h54v-78h-54z" />
    <glyph glyph-name="Thorn" unicode="&#xde;" 
d="M77 643h49v-104h143q105 0 162 -51.5t57 -144.5t-58 -143.5t-161 -50.5h-143v-148h-49v642zM263 491h-137v-295h137q175 0 175 147q0 148 -175 148z" />
    <glyph glyph-name="germandbls" unicode="&#xdf;" horiz-adv-x="568" 
d="M374 355q16 -1 38.5 -11t46.5 -28.5t40.5 -52.5t16.5 -76q0 -92 -70.5 -139.5t-200.5 -47.5v44q104 0 163.5 36.5t59.5 108.5q0 73 -59.5 107t-150.5 34v44q177 0 177 129q0 62 -38 93.5t-109 31.5q-161 0 -161 -185v-443h-50v446q0 105 52 166.5t159 61.5q101 0 149 -49
t48 -119q0 -63 -39 -105t-72 -46z" />
    <glyph glyph-name="agrave" unicode="&#xe0;" horiz-adv-x="515" 
d="M248 493q207 0 207 -203v-148q0 -38 -15 -66t-36 -43.5t-50 -25t-51 -12t-44 -2.5q-29 0 -59 5.5t-64.5 20t-56.5 47t-22 78.5q0 43 20.5 74t47.5 46.5t64 24.5t58 10.5t42 1.5q63 0 116 -10q0 153 -160 153q-66 0 -138 -22v48q69 23 141 23zM406 142v104q-58 9 -123 9
q-21 0 -42 -2t-46.5 -9t-44 -18.5t-31.5 -32.5t-13 -49q0 -32 15 -54t39.5 -32.5t48.5 -15t50 -4.5t48.5 4t46.5 14.5t38 32.5t14 53zM167 707h56l78 -138h-38z" />
    <glyph glyph-name="aacute" unicode="&#xe1;" horiz-adv-x="515" 
d="M248 493q207 0 207 -203v-148q0 -38 -15 -66t-36 -43.5t-50 -25t-51 -12t-44 -2.5q-29 0 -59 5.5t-64.5 20t-56.5 47t-22 78.5q0 43 20.5 74t47.5 46.5t64 24.5t58 10.5t42 1.5q63 0 116 -10q0 153 -160 153q-66 0 -138 -22v48q69 23 141 23zM406 142v104q-58 9 -123 9
q-21 0 -42 -2t-46.5 -9t-44 -18.5t-31.5 -32.5t-13 -49q0 -32 15 -54t39.5 -32.5t48.5 -15t50 -4.5t48.5 4t46.5 14.5t38 32.5t14 53zM305 707h56l-96 -138h-38z" />
    <glyph glyph-name="acircumflex" unicode="&#xe2;" horiz-adv-x="515" 
d="M248 493q207 0 207 -203v-148q0 -38 -15 -66t-36 -43.5t-50 -25t-51 -12t-44 -2.5q-29 0 -59 5.5t-64.5 20t-56.5 47t-22 78.5q0 43 20.5 74t47.5 46.5t64 24.5t58 10.5t42 1.5q63 0 116 -10q0 153 -160 153q-66 0 -138 -22v48q69 23 141 23zM406 142v104q-58 9 -123 9
q-21 0 -42 -2t-46.5 -9t-44 -18.5t-31.5 -32.5t-13 -49q0 -32 15 -54t39.5 -32.5t48.5 -15t50 -4.5t48.5 4t46.5 14.5t38 32.5t14 53zM284 707l102 -138h-48l-77 108l-78 -108h-47l102 138h46z" />
    <glyph glyph-name="atilde" unicode="&#xe3;" horiz-adv-x="515" 
d="M248 493q207 0 207 -203v-148q0 -38 -15 -66t-36 -43.5t-50 -25t-51 -12t-44 -2.5q-29 0 -59 5.5t-64.5 20t-56.5 47t-22 78.5q0 43 20.5 74t47.5 46.5t64 24.5t58 10.5t42 1.5q63 0 116 -10q0 153 -160 153q-66 0 -138 -22v48q69 23 141 23zM406 142v104q-58 9 -123 9
q-21 0 -42 -2t-46.5 -9t-44 -18.5t-31.5 -32.5t-13 -49q0 -32 15 -54t39.5 -32.5t48.5 -15t50 -4.5t48.5 4t46.5 14.5t38 32.5t14 53zM134 570l-2 39q33 44 65 44q24 0 68.5 -26t66.5 -26q31 0 60 40q0 -13 2 -37q-32 -46 -64 -46q-24 0 -69 25.5t-67 25.5q-33 0 -60 -39z
" />
    <glyph glyph-name="adieresis" unicode="&#xe4;" horiz-adv-x="515" 
d="M248 493q207 0 207 -203v-148q0 -38 -15 -66t-36 -43.5t-50 -25t-51 -12t-44 -2.5q-29 0 -59 5.5t-64.5 20t-56.5 47t-22 78.5q0 43 20.5 74t47.5 46.5t64 24.5t58 10.5t42 1.5q63 0 116 -10q0 153 -160 153q-66 0 -138 -22v48q69 23 141 23zM406 142v104q-58 9 -123 9
q-21 0 -42 -2t-46.5 -9t-44 -18.5t-31.5 -32.5t-13 -49q0 -32 15 -54t39.5 -32.5t48.5 -15t50 -4.5t48.5 4t46.5 14.5t38 32.5t14 53zM159 569v78h54v-78h-54zM308 569v78h54v-78h-54z" />
    <glyph glyph-name="aring" unicode="&#xe5;" horiz-adv-x="515" 
d="M248 493q207 0 207 -203v-148q0 -38 -15 -66t-36 -43.5t-50 -25t-51 -12t-44 -2.5q-29 0 -59 5.5t-64.5 20t-56.5 47t-22 78.5q0 43 20.5 74t47.5 46.5t64 24.5t58 10.5t42 1.5q63 0 116 -10q0 153 -160 153q-66 0 -138 -22v48q69 23 141 23zM406 142v104q-58 9 -123 9
q-21 0 -42 -2t-46.5 -9t-44 -18.5t-31.5 -32.5t-13 -49q0 -32 15 -54t39.5 -32.5t48.5 -15t50 -4.5t48.5 4t46.5 14.5t38 32.5t14 53zM258 704q-55 0 -55 -59q0 -31 13 -45t42 -14q54 0 54 59t-54 59zM258 730q40 0 61.5 -22t21.5 -63t-21.5 -63.5t-61.5 -22.5t-61.5 22.5
t-21.5 63.5q0 85 83 85z" />
    <glyph glyph-name="ae" unicode="&#xe6;" horiz-adv-x="883" 
d="M246 493q149 0 186 -114q48 114 183 114q49 0 87 -15t59.5 -40.5t36 -52t20.5 -57.5t7.5 -47t1.5 -31v-13.5t-0.5 -10.5t-0.5 -6.5v-3.5v-2h-373q6 -92 54 -132t141 -40q83 0 147 33v-51q-72 -31 -165 -31q-143 0 -192 106q-33 -62 -78 -84t-103 -22q-28 0 -57.5 5.5
t-64.5 20t-57 47t-22 78.5q0 39 17 68.5t41.5 45.5t58 26t60.5 13t54 3q59 0 117 -9q0 78 -39.5 115.5t-121.5 37.5q-68 0 -137 -22v48q69 23 140 23zM404 142v104q-59 9 -122 9q-29 0 -55.5 -4t-56 -14.5t-47.5 -34.5t-18 -58q0 -32 15 -54t39.5 -32.5t48.5 -15t50 -4.5
q25 0 48 4t46.5 14.5t37.5 32.5t14 53zM612 446q-153 0 -159 -188h323q0 15 -1.5 31.5t-11 47t-25.5 52.5t-49 39.5t-77 17.5z" />
    <glyph glyph-name="ccedilla" unicode="&#xe7;" horiz-adv-x="462" 
d="M291 446q-88 0 -135.5 -47t-47.5 -156t47.5 -156t135.5 -47q70 0 136 26v-48q-53 -20 -117 -25l-75 -134h-57l93 133q-212 11 -212 251q0 74 20 126t55.5 78t72 36.5t79.5 10.5q68 0 141 -26v-48q-70 26 -136 26z" />
    <glyph glyph-name="egrave" unicode="&#xe8;" 
d="M277 493q42 0 76.5 -12.5t55.5 -31.5t37 -46t23 -49.5t11.5 -49.5t5 -39.5t0.5 -24.5v-11v-7.5t-0.5 -4t-0.5 -2.5v-1h-373q1 -25 9 -43q19 -130 174 -130q96 0 158 34v-51q-66 -31 -162 -31q-45 0 -83 11t-72.5 36t-54.5 74.5t-20 118.5q0 28 3.5 57t17.5 67.5t36 67
t63 48.5t96 20zM274 446q-77 0 -117.5 -49t-44.5 -139h323q0 13 -1.5 29.5t-10.5 46.5t-25 53t-48 41t-76 18zM179 707h56l78 -138h-38z" />
    <glyph glyph-name="eacute" unicode="&#xe9;" 
d="M277 493q42 0 76.5 -12.5t55.5 -31.5t37 -46t23 -49.5t11.5 -49.5t5 -39.5t0.5 -24.5v-11v-7.5t-0.5 -4t-0.5 -2.5v-1h-373q1 -25 9 -43q19 -130 174 -130q96 0 158 34v-51q-66 -31 -162 -31q-45 0 -83 11t-72.5 36t-54.5 74.5t-20 118.5q0 28 3.5 57t17.5 67.5t36 67
t63 48.5t96 20zM274 446q-77 0 -117.5 -49t-44.5 -139h323q0 13 -1.5 29.5t-10.5 46.5t-25 53t-48 41t-76 18zM311 707h56l-96 -138h-38z" />
    <glyph glyph-name="ecircumflex" unicode="&#xea;" 
d="M277 493q42 0 76.5 -12.5t55.5 -31.5t37 -46t23 -49.5t11.5 -49.5t5 -39.5t0.5 -24.5v-11v-7.5t-0.5 -4t-0.5 -2.5v-1h-373q1 -25 9 -43q19 -130 174 -130q96 0 158 34v-51q-66 -31 -162 -31q-45 0 -83 11t-72.5 36t-54.5 74.5t-20 118.5q0 28 3.5 57t17.5 67.5t36 67
t63 48.5t96 20zM274 446q-77 0 -117.5 -49t-44.5 -139h323q0 13 -1.5 29.5t-10.5 46.5t-25 53t-48 41t-76 18zM292 707l102 -138h-48l-77 108l-78 -108h-47l102 138h46z" />
    <glyph glyph-name="edieresis" unicode="&#xeb;" 
d="M277 493q42 0 76.5 -12.5t55.5 -31.5t37 -46t23 -49.5t11.5 -49.5t5 -39.5t0.5 -24.5v-11v-7.5t-0.5 -4t-0.5 -2.5v-1h-373q1 -25 9 -43q19 -130 174 -130q96 0 158 34v-51q-66 -31 -162 -31q-45 0 -83 11t-72.5 36t-54.5 74.5t-20 118.5q0 28 3.5 57t17.5 67.5t36 67
t63 48.5t96 20zM274 446q-77 0 -117.5 -49t-44.5 -139h323q0 13 -1.5 29.5t-10.5 46.5t-25 53t-48 41t-76 18zM169 569v78h54v-78h-54zM318 569v78h54v-78h-54z" />
    <glyph glyph-name="igrave" unicode="&#xec;" horiz-adv-x="220" 
d="M85 0v485h49v-485h-49zM11 707h56l78 -138h-38z" />
    <glyph glyph-name="iacute" unicode="&#xed;" horiz-adv-x="220" 
d="M85 0v485h49v-485h-49zM150 707h57l-96 -138h-39z" />
    <glyph glyph-name="icircumflex" unicode="&#xee;" horiz-adv-x="220" 
d="M85 0v485h49v-485h-49zM133 707l102 -138h-48l-77 108l-78 -108h-46l101 138h46z" />
    <glyph glyph-name="idieresis" unicode="&#xef;" horiz-adv-x="220" 
d="M85 0v485h49v-485h-49zM9 569v78h54v-78h-54zM158 569v78h54v-78h-54z" />
    <glyph glyph-name="eth" unicode="&#xf0;" horiz-adv-x="563" 
d="M394 582q97 -92 97 -288q0 -302 -219 -302q-108 0 -161 62t-53 148q0 92 57.5 145t156.5 53q103 0 166 -54q-8 145 -89 210l-121 -68q-5 10 -19 34l102 56q-49 27 -113 27q-21 0 -42 -3v47q21 3 44 3q96 0 161 -45q18 9 49.5 27.5t44.5 25.5l6 -10.5l6.5 -12l5.5 -10.5z
M442 291q-24 24 -68 43.5t-102 19.5q-78 0 -121 -39.5t-43 -112.5q0 -19 3.5 -38.5t14.5 -43t28 -41t47.5 -29.5t70.5 -12q26 0 47 4.5t44.5 20.5t40 42.5t27 74t11.5 111.5z" />
    <glyph glyph-name="ntilde" unicode="&#xf1;" horiz-adv-x="550" 
d="M282 493q90 0 139 -45t49 -132v-316h-49v316q0 128 -144 128q-78 0 -153 -32v-412h-50v442q99 51 208 51zM134 570q0 13 -2 39q33 44 65 44q25 0 69 -26t66 -26q31 0 60 40l2 -37q-32 -46 -64 -46q-24 0 -69 25.5t-67 25.5q-31 0 -60 -39z" />
    <glyph glyph-name="ograve" unicode="&#xf2;" horiz-adv-x="559" 
d="M280 494q43 0 80 -11t72 -37t55 -77.5t20 -125.5t-20 -125.5t-55 -77.5t-72 -37t-80 -11t-80 11t-72 37t-55 77.5t-20 125.5t20 125.5t55 77.5t72 37t80 11zM280 38q85 0 131.5 48t46.5 157t-46.5 157t-131.5 48q-178 0 -178 -205t178 -205zM189 707h56l78 -137h-38z" />
    <glyph glyph-name="oacute" unicode="&#xf3;" horiz-adv-x="559" 
d="M280 494q43 0 80 -11t72 -37t55 -77.5t20 -125.5t-20 -125.5t-55 -77.5t-72 -37t-80 -11t-80 11t-72 37t-55 77.5t-20 125.5t20 125.5t55 77.5t72 37t80 11zM280 38q85 0 131.5 48t46.5 157t-46.5 157t-131.5 48q-178 0 -178 -205t178 -205zM325 707h56l-96 -137h-38z
" />
    <glyph glyph-name="ocircumflex" unicode="&#xf4;" horiz-adv-x="559" 
d="M280 493q34 0 63.5 -6t60.5 -23t53 -44t36 -72.5t14 -105.5q0 -59 -14 -104.5t-36 -72.5t-53 -43.5t-60.5 -22.5t-63.5 -6t-64 6t-61 22.5t-53 43.5t-36 72.5t-14 104.5q0 74 20.5 126t55.5 78t72 36.5t80 10.5zM280 37q177 0 177 205q0 206 -177 206q-178 0 -178 -206
q0 -205 178 -205zM302 707l102 -138h-48l-77 108l-78 -108h-46l101 138h46z" />
    <glyph glyph-name="otilde" unicode="&#xf5;" horiz-adv-x="559" 
d="M280 493q34 0 63.5 -6t60.5 -23t53 -44t36 -72.5t14 -105.5q0 -59 -14 -104.5t-36 -72.5t-53 -43.5t-60.5 -22.5t-63.5 -6t-64 6t-61 22.5t-53 43.5t-36 72.5t-14 104.5q0 74 20.5 126t55.5 78t72 36.5t80 10.5zM280 37q177 0 177 205q0 206 -177 206q-178 0 -178 -206
q0 -205 178 -205zM149 570q0 6 -0.5 19t-0.5 20q32 44 65 44q24 0 68.5 -26t66.5 -26q30 0 59 40l2 -37q-32 -46 -64 -46q-24 0 -68.5 25.5t-67.5 25.5q-31 0 -60 -39z" />
    <glyph glyph-name="odieresis" unicode="&#xf6;" horiz-adv-x="559" 
d="M280 494q43 0 80 -11t72 -37t55 -77.5t20 -125.5t-20 -125.5t-55 -77.5t-72 -37t-80 -11t-80 11t-72 37t-55 77.5t-20 125.5t20 125.5t55 77.5t72 37t80 11zM280 38q85 0 131.5 48t46.5 157t-46.5 157t-131.5 48q-178 0 -178 -205t178 -205zM178 570v78h55v-78h-55z
M327 570v78h54v-78h-54z" />
    <glyph glyph-name="oslash" unicode="&#xf8;" horiz-adv-x="565" 
d="M453 485h54l-51 -62q53 -61 53 -179q0 -74 -20 -126t-55 -78t-72 -37t-80 -11q-88 0 -144 41l-27 -33h-54l51 63q-53 63 -53 181q0 59 14 104.5t36 72.5t52.5 44t60.5 23t64 6q88 0 144 -42zM104 244q0 -93 37 -143l255 315q-43 32 -114 32q-178 0 -178 -204zM460 244
q0 90 -37 141l-255 -316q42 -31 114 -31q85 0 131.5 48t46.5 158z" />
    <glyph glyph-name="ugrave" unicode="&#xf9;" horiz-adv-x="558" 
d="M428 198v287h50v-284q0 -100 -53 -154t-149 -54q-97 0 -149.5 54t-52.5 154v284h50v-287q0 -160 152 -160t152 160zM182 707h56l78 -138h-38z" />
    <glyph glyph-name="uacute" unicode="&#xfa;" horiz-adv-x="558" 
d="M428 198v287h50v-284q0 -100 -53 -154t-149 -54q-97 0 -149.5 54t-52.5 154v284h50v-287q0 -160 152 -160t152 160zM310 707h56l-96 -138h-38z" />
    <glyph glyph-name="ucircumflex" unicode="&#xfb;" horiz-adv-x="558" 
d="M428 198v287h50v-284q0 -100 -53 -154t-149 -54q-97 0 -149.5 54t-52.5 154v284h50v-287q0 -160 152 -160t152 160zM299 707l102 -138h-48l-77 108l-78 -108h-47l102 138h46z" />
    <glyph glyph-name="udieresis" unicode="&#xfc;" horiz-adv-x="558" 
d="M428 198v287h50v-284q0 -100 -53 -154t-149 -54q-97 0 -149.5 54t-52.5 154v284h50v-287q0 -160 152 -160t152 160zM175 569v78h54v-78h-54zM323 569v78h55v-78h-55z" />
    <glyph glyph-name="thorn" unicode="&#xfe;" horiz-adv-x="533" 
d="M262 489q43 0 79.5 -10.5t70.5 -36t53.5 -76.5t19.5 -123t-19.5 -123t-53.5 -76.5t-70.5 -36t-79.5 -10.5q-71 0 -137 24v-204h-50v851h50v-203q66 24 137 24zM262 43q85 0 129 46t44 154q0 107 -44 153.5t-129 46.5q-75 0 -137 -28v-345q64 -27 137 -27z" />
    <glyph glyph-name="ydieresis" unicode="&#xff;" horiz-adv-x="482" 
d="M246 65l155 420h53l-203 -543q-50 -133 -148 -133q-23 0 -46 9v46q18 -9 41 -9q22 0 39 8.5t29.5 26.5t20.5 32.5t19 40.5l16 37l-189 485h54zM144 569v78h55v-78h-55zM293 569v78h54v-78h-54z" />
    <glyph glyph-name="circumflex" unicode="&#x2c6;" horiz-adv-x="378" 
d="M214 707l102 -138h-48l-77 108l-78 -108h-47l102 138h46z" />
    <glyph glyph-name="caron" unicode="&#x2c7;" horiz-adv-x="385" 
d="M316 707l-102 -138h-46l-102 138h47l78 -108l77 108h48z" />
    <glyph glyph-name="dotaccent" unicode="&#x2d9;" horiz-adv-x="263" 
d="M103 570v78h54v-78h-54z" />
    <glyph glyph-name="ring" unicode="&#x2da;" horiz-adv-x="361" 
d="M175 731q40 0 61.5 -22t21.5 -63q0 -42 -21.5 -64.5t-61.5 -22.5q-83 0 -83 87q0 41 21.5 63t61.5 22zM175 587q28 0 41 14t13 45q0 58 -54 58q-55 0 -55 -58q0 -59 55 -59z" />
    <glyph glyph-name="tilde" unicode="&#x2dc;" horiz-adv-x="445" 
d="M89 570q0 6 -0.5 19t-0.5 20q32 44 64 44q24 0 69 -26t67 -26q32 0 59 40l2 -37q-32 -46 -64 -46q-24 0 -69 25.5t-67 25.5q-31 0 -60 -39z" />
    <glyph glyph-name="endash" unicode="&#x2013;" horiz-adv-x="591" 
d="M65 256v43h456v-43h-456z" />
    <glyph glyph-name="emdash" unicode="&#x2014;" horiz-adv-x="905" 
d="M72 256v46h756v-46h-756z" />
    <glyph glyph-name="quoteleft" unicode="&#x2018;" horiz-adv-x="228" 
d="M104 653l65 -185h-49l-72 185h56z" />
    <glyph glyph-name="quoteright" unicode="&#x2019;" horiz-adv-x="227" 
d="M113 653h56l-71 -185h-50z" />
    <glyph glyph-name="quotesinglbase" unicode="&#x201a;" horiz-adv-x="255" 
d="M130 82h55l-71 -184h-49z" />
    <glyph glyph-name="quotedblleft" unicode="&#x201c;" horiz-adv-x="357" 
d="M300 468h-49l-72 184h56zM169 468h-50l-71 184h56z" />
    <glyph glyph-name="quotedblright" unicode="&#x201d;" horiz-adv-x="353" 
d="M113 653h56l-71 -185h-50zM245 653h56l-72 -185h-49z" />
    <glyph glyph-name="quotedblbase" unicode="&#x201e;" horiz-adv-x="385" 
d="M130 82h55l-71 -184h-49zM261 82h56l-71 -184h-50z" />
    <glyph glyph-name="dagger" unicode="&#x2020;" horiz-adv-x="427" 
d="M354 523v-33h-124v-391h-33v391h-124v33h124v139h33v-139h124z" />
    <glyph glyph-name="daggerdbl" unicode="&#x2021;" horiz-adv-x="449" 
d="M244 441v-218h146v-41h-146v-147h-42v147h-147v41h147v218h-147v41h147v146h42v-146h146v-41h-146z" />
    <glyph glyph-name="bullet" unicode="&#x2022;" horiz-adv-x="380" 
d="M290 333q0 -41 -29 -69.5t-69 -28.5t-69 28.5t-29 69.5t28.5 69.5t69.5 28.5t69.5 -28.5t28.5 -69.5z" />
    <glyph glyph-name="ellipsis" unicode="&#x2026;" horiz-adv-x="673" 
d="M98 0v79h55v-79h-55zM524 0v79h54v-79h-54zM311 0v79h54v-79h-54z" />
    <glyph glyph-name="perthousand" unicode="&#x2030;" horiz-adv-x="1078" 
d="M564 39q44 0 70.5 28t26.5 109t-26.5 108.5t-70.5 27.5q-43 0 -70 -27.5t-27 -108.5t27 -109t70 -28zM564 3q-135 0 -135 173t135 173t135 -173t-135 -173zM567 643h44l-410 -643h-45zM203 331q43 0 70 27.5t27 108.5t-27 108.5t-70 27.5q-44 0 -71 -27.5t-27 -108.5
t27 -108.5t71 -27.5zM203 294q-136 0 -136 173q0 172 136 172q135 0 135 -172q0 -173 -135 -173zM881 39q44 0 70.5 28t26.5 109t-26.5 108.5t-70.5 27.5t-70.5 -27.5t-26.5 -108.5t26.5 -109t70.5 -28zM881 3q-135 0 -135 173t135 173t135 -173t-135 -173z" />
    <glyph glyph-name="guilsinglleft" unicode="&#x2039;" horiz-adv-x="334" 
d="M281 447l-184 -192l184 -191h-67l-178 191l178 192h67z" />
    <glyph glyph-name="guilsinglright" unicode="&#x203a;" horiz-adv-x="344" 
d="M57 447h66l178 -192l-178 -191h-66l183 191z" />
    <glyph glyph-name="fraction" unicode="&#x2044;" horiz-adv-x="322" 
d="M355 662h33l-428 -683h-33z" />
    <glyph glyph-name="Euro" unicode="&#x20ac;" horiz-adv-x="644" 
d="M409 606q-208 0 -245 -187h316v-42h-322q-3 -26 -3 -56q0 -6 3 -54h322v-42h-316q37 -187 246 -187q95 0 186 35v-47q-97 -35 -192 -35q-118 0 -194 57t-96 177h-74v42h69q-3 25 -3 54q0 31 3 56h-69v42h74q21 119 97 176.5t193 57.5q96 0 192 -37v-47q-97 37 -187 37z
" />
    <glyph glyph-name="trademark" unicode="&#x2122;" horiz-adv-x="723" 
d="M503 430l-122 171v-280h-25v322h27l120 -171l119 171h28v-322h-26v280zM188 321h-25v297h-121v25h266v-25h-120v-297z" />
    </font>
</defs>
</svg>
